<svg width="20" height="20" viewBox="0 0 20 20" fill="none" xmlns="http://www.w3.org/2000/svg">
<path fill-rule="evenodd" clip-rule="evenodd" d="M9.99992 0C4.47784 0 0 4.59022 0 10.2532C0 14.7835 2.86528 18.6266 6.83855 19.9825C7.33815 20.0776 7.52163 19.7601 7.52163 19.4893C7.52163 19.2448 7.51236 18.4371 7.50805 17.5804C4.72607 18.2006 4.13903 16.3706 4.13903 16.3706C3.68415 15.1855 3.02872 14.8704 3.02872 14.8704C2.12126 14.234 3.09711 14.2473 3.09711 14.2473C4.10111 14.3194 4.63002 15.3039 4.63002 15.3039C5.52191 16.871 6.96937 16.418 7.54001 16.1562C7.62976 15.4935 7.88892 15.041 8.1749 14.785C5.95378 14.5261 3.61874 13.6467 3.61874 9.718C3.61874 8.59859 4.00954 7.68394 4.64923 6.96573C4.54524 6.70765 4.20295 5.66481 4.74594 4.25252C4.74594 4.25252 5.5855 3.97695 7.49646 5.30351C8.29429 5.07616 9.14992 4.96189 9.99992 4.95799C10.8494 4.96189 11.7055 5.07582 12.5049 5.30317C14.4135 3.97661 15.2521 4.25218 15.2521 4.25218C15.7964 5.6643 15.4541 6.70731 15.3503 6.96539C15.9915 7.6836 16.3794 8.59825 16.3794 9.71766C16.3794 13.6557 14.0401 14.5227 11.8133 14.7767C12.1722 15.0949 12.4918 15.719 12.4918 16.6754C12.4918 18.0473 12.4802 19.1514 12.4802 19.4891C12.4802 19.762 12.6604 20.0817 13.1671 19.981C17.138 18.6237 20 14.7818 20 10.2532C19.9998 4.59056 15.5225 0 9.99992 0Z" fill="white"/>
<path d="M3.78752 14.7212C3.7655 14.7721 3.68734 14.7874 3.61613 14.7526C3.54327 14.7193 3.5027 14.6499 3.52621 14.5988C3.54774 14.5461 3.62607 14.5317 3.69843 14.5668C3.77129 14.6003 3.81269 14.6704 3.78736 14.7213L3.78752 14.7212ZM4.19257 15.1845C4.14504 15.2299 4.05181 15.2088 3.98855 15.137C3.92298 15.0657 3.91072 14.9701 3.95924 14.9241C4.00859 14.8789 4.099 14.9003 4.16458 14.9716C4.22982 15.0439 4.24274 15.1387 4.19273 15.1847L4.19257 15.1845ZM4.58701 15.7749C4.52574 15.8187 4.42539 15.7778 4.36346 15.6866C4.30219 15.5952 4.30219 15.4857 4.36511 15.4421C4.42688 15.3983 4.52574 15.4378 4.58867 15.5282C4.64961 15.6207 4.64961 15.7304 4.58701 15.7749ZM5.12702 16.3455C5.07237 16.4075 4.95546 16.3909 4.87001 16.3065C4.78274 16.2238 4.7584 16.1061 4.81321 16.0443C4.86885 15.9822 4.98626 15.9995 5.0722 16.0834C5.15947 16.1659 5.1858 16.2837 5.12735 16.3454L5.12702 16.3455ZM5.87219 16.6768C5.84785 16.7571 5.73557 16.7936 5.62214 16.7593C5.50904 16.7242 5.43502 16.6303 5.4582 16.5491C5.48139 16.4681 5.59449 16.4303 5.70858 16.4668C5.82168 16.5017 5.8957 16.5951 5.87219 16.6768ZM6.69072 16.7381C6.69354 16.8226 6.59749 16.8926 6.47876 16.8943C6.35904 16.8972 6.26216 16.8286 6.26101 16.7454C6.26101 16.66 6.35506 16.5909 6.47462 16.5885C6.59335 16.5863 6.69089 16.6542 6.69089 16.7379L6.69072 16.7381ZM7.45213 16.6053C7.46637 16.6877 7.38374 16.7724 7.26567 16.795C7.14975 16.817 7.04211 16.7658 7.02721 16.6841C7.01297 16.5995 7.09709 16.5148 7.21301 16.4929C7.33124 16.472 7.43722 16.5216 7.45213 16.6053Z" fill="white"/>
</svg>
