<svg width="16" height="16" viewBox="0 0 16 16" fill="none" xmlns="http://www.w3.org/2000/svg">
<path fill-rule="evenodd" clip-rule="evenodd" d="M7.99993 0C3.58227 0 0 3.67218 0 8.20254C0 11.8268 2.29222 14.9013 5.47084 15.986C5.87052 16.0621 6.0173 15.8081 6.0173 15.5914C6.0173 15.3959 6.00989 14.7497 6.00644 14.0643C3.78085 14.5605 3.31123 13.0965 3.31123 13.0965C2.94732 12.1484 2.42298 11.8963 2.42298 11.8963C1.69701 11.3872 2.47769 11.3978 2.47769 11.3978C3.28089 11.4555 3.70402 12.2431 3.70402 12.2431C4.41753 13.4968 5.5755 13.1344 6.03201 12.925C6.10381 12.3948 6.31114 12.0328 6.53992 11.828C4.76303 11.6208 2.89499 10.9174 2.89499 7.7744C2.89499 6.87887 3.20763 6.14715 3.71938 5.57259C3.63619 5.36612 3.36236 4.53185 3.79675 3.40201C3.79675 3.40201 4.4684 3.18156 5.99717 4.2428C6.63544 4.06093 7.31994 3.96951 7.99993 3.96639C8.67953 3.96951 9.36443 4.06066 10.0039 4.24253C11.5308 3.18129 12.2017 3.40174 12.2017 3.40174C12.6371 4.53144 12.3633 5.36585 12.2802 5.57231C12.7932 6.14688 13.1036 6.8786 13.1036 7.77413C13.1036 10.9246 11.2321 11.6181 9.45067 11.8213C9.73775 12.0759 9.99343 12.5752 9.99343 13.3403C9.99343 14.4378 9.98415 15.3211 9.98415 15.5913C9.98415 15.8096 10.1283 16.0654 10.5337 15.9848C13.7104 14.899 16 11.8254 16 8.20254C15.9999 3.67245 12.418 0 7.99993 0Z" fill="#181616"/>
<path d="M3.03007 11.7769C3.01245 11.8177 2.94992 11.8299 2.89295 11.802C2.83466 11.7754 2.80221 11.7199 2.82102 11.679C2.83824 11.6369 2.9009 11.6253 2.95879 11.6534C3.01708 11.6802 3.0502 11.7363 3.02993 11.777L3.03007 11.7769ZM3.3541 12.1476C3.31608 12.1839 3.2415 12.167 3.19089 12.1096C3.13843 12.0525 3.12863 11.976 3.16744 11.9392C3.20692 11.9031 3.27925 11.9202 3.33171 11.9773C3.38391 12.0351 3.39424 12.1109 3.35423 12.1477L3.3541 12.1476ZM3.66966 12.6199C3.62064 12.6549 3.54036 12.6222 3.49082 12.5492C3.4418 12.4762 3.4418 12.3886 3.49214 12.3536C3.54155 12.3186 3.62064 12.3503 3.67098 12.4225C3.71973 12.4965 3.71973 12.5843 3.66966 12.6199ZM4.10166 13.0764C4.05794 13.126 3.96442 13.1127 3.89606 13.0452C3.82624 12.979 3.80677 12.8849 3.85062 12.8354C3.89513 12.7857 3.98906 12.7996 4.05781 12.8667C4.12763 12.9327 4.14869 13.027 4.10193 13.0763L4.10166 13.0764ZM4.6978 13.3414C4.67833 13.4057 4.58851 13.4349 4.49776 13.4074C4.40728 13.3793 4.34807 13.3042 4.36661 13.2393C4.38516 13.1745 4.47564 13.1442 4.56691 13.1734C4.6574 13.2014 4.71661 13.2761 4.6978 13.3414ZM5.35263 13.3904C5.35488 13.4581 5.27804 13.5141 5.18306 13.5154C5.08728 13.5177 5.00978 13.4628 5.00885 13.3963C5.00885 13.328 5.0841 13.2727 5.17975 13.2708C5.27473 13.269 5.35276 13.3233 5.35276 13.3903L5.35263 13.3904ZM5.96175 13.2842C5.97314 13.3501 5.90704 13.4179 5.81258 13.4359C5.71985 13.4536 5.63374 13.4126 5.62182 13.3472C5.61042 13.2796 5.67772 13.2118 5.77045 13.1943C5.86504 13.1776 5.94983 13.2173 5.96175 13.2842Z" fill="#181616"/>
</svg>
