<svg width="25" height="16" viewBox="0 0 25 16" fill="none" xmlns="http://www.w3.org/2000/svg">
<g clip-path="url(#clip0_1575_728)">
<path d="M12.3586 15.9538C12.274 15.9538 12.195 15.9303 12.1216 15.8891L11.3712 15.4238C11.2583 15.359 11.3148 15.3355 11.3487 15.3237C11.501 15.2707 11.5292 15.2589 11.6872 15.1647C11.7041 15.1529 11.7267 15.1588 11.7436 15.1706L12.3192 15.5298C12.3417 15.5416 12.37 15.5416 12.3868 15.5298L14.6383 14.1694C14.6608 14.1576 14.6721 14.1341 14.6721 14.1047V11.3898C14.6721 11.3602 14.6608 11.3368 14.6383 11.3249L12.3868 9.97044C12.3643 9.95862 12.3361 9.95862 12.3192 9.97044L10.0678 11.3249C10.0452 11.3367 10.0339 11.3662 10.0339 11.3897V14.1046C10.0339 14.1282 10.0452 14.1576 10.0678 14.1694L10.6828 14.5404C11.0157 14.7171 11.2245 14.511 11.2245 14.3049V11.6253C11.2245 11.59 11.2527 11.5546 11.2922 11.5546H11.58C11.6138 11.5546 11.6477 11.584 11.6477 11.6253V14.3049C11.6477 14.7701 11.405 15.041 10.9819 15.041C10.8521 15.041 10.7505 15.041 10.4627 14.8938L9.87028 14.5404C9.72357 14.4521 9.6333 14.2872 9.6333 14.1105V11.3956C9.6333 11.2189 9.72357 11.054 9.87028 10.9657L12.1216 9.60529C12.2627 9.52285 12.4546 9.52285 12.5957 9.60529L14.847 10.9657C14.9937 11.054 15.084 11.2189 15.084 11.3956V14.1105C15.084 14.2872 14.9937 14.4521 14.847 14.5404L12.5957 15.9008C12.5223 15.9362 12.4376 15.9538 12.3586 15.9538ZM13.0527 14.087C12.0653 14.087 11.8621 13.6158 11.8621 13.2154C11.8621 13.18 11.8903 13.1447 11.9298 13.1447H12.2232C12.2571 13.1447 12.2853 13.1682 12.2853 13.2036C12.3305 13.5157 12.4602 13.6688 13.0583 13.6688C13.5323 13.6688 13.7355 13.5569 13.7355 13.2919C13.7355 13.1388 13.679 13.0269 12.9398 12.9504C12.3248 12.8855 11.9411 12.7442 11.9411 12.2319C11.9411 11.7548 12.3248 11.4721 12.9681 11.4721C13.6903 11.4721 14.0458 11.7313 14.091 12.2966C14.091 12.3143 14.0853 12.332 14.074 12.3496C14.0627 12.3614 14.0458 12.3732 14.0289 12.3732H13.7354C13.7072 12.3732 13.679 12.3496 13.6734 12.3202C13.6057 11.9963 13.4307 11.8903 12.9681 11.8903C12.4489 11.8903 12.3868 12.0788 12.3868 12.2201C12.3868 12.3909 12.4602 12.4439 13.1599 12.5381C13.8539 12.6323 14.1812 12.7678 14.1812 13.2742C14.1756 13.7925 13.7693 14.087 13.0527 14.087Z" fill="#539E43"/>
<path d="M5.37317 5.33566C5.37317 5.22967 5.31673 5.12949 5.22646 5.0765L2.834 3.63955C2.79446 3.61596 2.74934 3.60419 2.70423 3.59828H2.68163C2.63652 3.59828 2.59136 3.61596 2.55186 3.63955L0.159404 5.0765C0.0690843 5.12949 0.0126953 5.22962 0.0126953 5.33566L0.0183586 9.19894C0.0183586 9.25194 0.0465775 9.30493 0.0916888 9.32852C0.136849 9.35797 0.193238 9.35797 0.232783 9.32852L1.65471 8.48047C1.74499 8.42748 1.80142 8.32735 1.80142 8.22136V6.41336C1.80142 6.30738 1.85781 6.20725 1.94813 6.15425L2.55186 5.78911C2.59702 5.75966 2.6478 5.74783 2.69857 5.74783C2.74934 5.74783 2.80012 5.75966 2.83966 5.78911L3.44339 6.15425C3.53371 6.20725 3.5901 6.30732 3.5901 6.41336V8.22136C3.5901 8.32735 3.64654 8.42748 3.73681 8.48047L5.15874 9.32852C5.2039 9.35797 5.26029 9.35797 5.30545 9.32852C5.35061 9.30493 5.37883 9.25194 5.37883 9.19894L5.37317 5.33566ZM16.8728 0.0176943C16.8277 -0.00589809 16.7712 -0.00589809 16.7317 0.0176943C16.6866 0.0471465 16.6583 0.0942293 16.6583 0.147223V3.97525C16.6583 4.01056 16.6414 4.04587 16.6076 4.06947C16.5737 4.0871 16.5399 4.0871 16.506 4.06947L15.9079 3.71023C15.8641 3.68417 15.8145 3.67047 15.764 3.67047C15.7135 3.67047 15.6639 3.68417 15.6201 3.71023L13.2276 5.15308C13.1374 5.20608 13.0809 5.3062 13.0809 5.41219V8.29199C13.0809 8.39797 13.1374 8.49815 13.2276 8.55115L15.6201 9.994C15.6639 10.0201 15.7135 10.0338 15.764 10.0338C15.8145 10.0338 15.8641 10.0201 15.9079 9.994L18.3004 8.55115C18.3906 8.49815 18.4471 8.39803 18.4471 8.29199V1.11308C18.4471 1.00118 18.3906 0.901108 18.3004 0.848064L16.8728 0.0176943ZM16.6527 7.34386C16.6527 7.37331 16.6414 7.39685 16.6188 7.40862L15.8007 7.9033C15.7893 7.90912 15.7767 7.91214 15.764 7.91214C15.7513 7.91214 15.7387 7.90912 15.7273 7.9033L14.9092 7.40862C14.8866 7.39685 14.8753 7.3674 14.8753 7.34386V6.35446C14.8753 6.32501 14.8866 6.30147 14.9092 6.28969L15.7273 5.79497C15.7387 5.78915 15.7513 5.78613 15.764 5.78613C15.7767 5.78613 15.7893 5.78915 15.8007 5.79497L16.6188 6.28969C16.6414 6.30141 16.6527 6.33092 16.6527 6.35446V7.34386ZM24.8345 6.33092C24.9248 6.27792 24.9755 6.1778 24.9755 6.07176V5.37097C24.9755 5.26498 24.9191 5.16485 24.8345 5.11186L22.4589 3.67492C22.4151 3.64887 22.3655 3.63517 22.3151 3.63517C22.2646 3.63517 22.215 3.64887 22.1712 3.67492L19.7787 5.11772C19.6884 5.17071 19.632 5.27084 19.632 5.37688V8.25668C19.632 8.36266 19.6884 8.46279 19.7787 8.51578L22.1542 9.92918C22.2446 9.98218 22.3517 9.98218 22.4364 9.92918L23.8752 9.09301C23.9204 9.06941 23.9486 9.01642 23.9486 8.96343C23.9486 8.91043 23.9204 8.85744 23.8752 8.83385L21.4715 7.39099C21.4264 7.36159 21.3981 7.31446 21.3981 7.26146V6.36042C21.3981 6.30743 21.4264 6.25443 21.4715 6.23084L22.222 5.78325C22.2439 5.76882 22.2694 5.76116 22.2953 5.76116C22.3213 5.76116 22.3467 5.76882 22.3687 5.78325L23.1191 6.23084C23.1643 6.26029 23.1925 6.30738 23.1925 6.36042V7.06712C23.1925 7.12011 23.2207 7.17311 23.2658 7.19665C23.311 7.2261 23.3674 7.2261 23.4125 7.19665L24.8345 6.33092Z" fill="#333333"/>
<path d="M22.2783 6.19546C22.2866 6.18971 22.2964 6.18665 22.3065 6.18665C22.3165 6.18665 22.3263 6.18971 22.3346 6.19546L22.7917 6.47225C22.8087 6.48397 22.8199 6.50166 22.8199 6.52525V7.07883C22.8199 7.10237 22.8087 7.12005 22.7917 7.13182L22.3346 7.40861C22.3263 7.41436 22.3165 7.41743 22.3065 7.41743C22.2964 7.41743 22.2866 7.41436 22.2783 7.40861L21.8212 7.13182C21.8042 7.12005 21.793 7.10237 21.793 7.07883V6.52525C21.793 6.50166 21.8042 6.48397 21.8212 6.47225L22.2783 6.19546Z" fill="#539E43"/>
<path d="M9.3737 3.68672C9.32986 3.66067 9.28027 3.64697 9.22982 3.64697C9.17937 3.64697 9.12979 3.66067 9.08595 3.68672L6.71043 5.1177C6.62011 5.17069 6.56934 5.27082 6.56934 5.37681V8.24488C6.56934 8.35087 6.62577 8.451 6.71043 8.50399L9.08595 9.93508C9.12979 9.96112 9.17937 9.97482 9.22982 9.97482C9.28027 9.97482 9.32986 9.96112 9.3737 9.93508L11.7493 8.50399C11.8395 8.451 11.8904 8.35087 11.8904 8.24488V5.37686C11.8904 5.27087 11.8339 5.17074 11.7493 5.11775L9.3737 3.68672Z" fill="url(#paint0_linear_1575_728)"/>
<mask id="mask0_1575_728" style="mask-type:luminance" maskUnits="userSpaceOnUse" x="6" y="3" width="6" height="7">
<path d="M9.3737 3.68672C9.32986 3.66067 9.28027 3.64697 9.22982 3.64697C9.17937 3.64697 9.12979 3.66067 9.08595 3.68672L6.71043 5.1177C6.62011 5.17069 6.56934 5.27082 6.56934 5.37681V8.24488C6.56934 8.35087 6.62577 8.451 6.71043 8.50399L9.08595 9.93508C9.12979 9.96112 9.17937 9.97482 9.22982 9.97482C9.28027 9.97482 9.32986 9.96112 9.3737 9.93508L11.7493 8.50399C11.8395 8.451 11.8904 8.35087 11.8904 8.24488V5.37686C11.8904 5.27087 11.8339 5.17074 11.7493 5.11775L9.3737 3.68672Z" fill="white"/>
</mask>
<g mask="url(#mask0_1575_728)">
<path d="M11.7549 5.11777L9.36809 3.68674C9.34464 3.67438 9.32006 3.66451 9.29471 3.65729L6.62012 8.43935C6.64227 8.46758 6.66903 8.49151 6.69916 8.51003L9.08595 9.94111C9.15367 9.98233 9.23266 9.9941 9.30599 9.97051L11.817 5.17673C11.8 5.15319 11.7774 5.1354 11.7549 5.11777Z" fill="url(#paint1_linear_1575_728)"/>
</g>
<mask id="mask1_1575_728" style="mask-type:luminance" maskUnits="userSpaceOnUse" x="6" y="3" width="6" height="7">
<path d="M9.3737 3.68672C9.32986 3.66067 9.28027 3.64697 9.22982 3.64697C9.17937 3.64697 9.12979 3.66067 9.08595 3.68672L6.71043 5.1177C6.62011 5.17069 6.56934 5.27082 6.56934 5.37681V8.24488C6.56934 8.35087 6.62577 8.451 6.71043 8.50399L9.08595 9.93508C9.12979 9.96112 9.17937 9.97482 9.22982 9.97482C9.28027 9.97482 9.32986 9.96112 9.3737 9.93508L11.7493 8.50399C11.8395 8.451 11.8904 8.35087 11.8904 8.24488V5.37686C11.8904 5.27087 11.8339 5.17074 11.7493 5.11775L9.3737 3.68672Z" fill="white"/>
</mask>
<g mask="url(#mask1_1575_728)">
<path fill-rule="evenodd" clip-rule="evenodd" d="M11.7606 8.50404C11.8283 8.46282 11.8791 8.39215 11.9017 8.31561L9.28345 3.65136C9.21573 3.63959 9.14235 3.64545 9.08035 3.68667L6.71045 5.11189L9.26651 9.97635C9.30368 9.97 9.33979 9.95811 9.37372 9.94104L11.7606 8.50409L11.7606 8.50404Z" fill="url(#paint2_linear_1575_728)"/>
<path fill-rule="evenodd" clip-rule="evenodd" d="M11.7609 8.50404L9.37967 9.93512C9.34606 9.95301 9.30983 9.96494 9.27246 9.97043L9.31762 10.0588L11.9583 8.46286V8.4275L11.8906 8.30969C11.8793 8.39214 11.8286 8.46281 11.7609 8.50404Z" fill="url(#paint3_linear_1575_728)"/>
<path fill-rule="evenodd" clip-rule="evenodd" d="M11.7609 8.50404L9.37967 9.93512C9.34606 9.95301 9.30983 9.96494 9.27246 9.97043L9.31762 10.0588L11.9583 8.46286V8.4275L11.8906 8.30969C11.8793 8.39214 11.8286 8.46281 11.7609 8.50404Z" fill="url(#paint4_linear_1575_728)"/>
</g>
</g>
<defs>
<linearGradient id="paint0_linear_1575_728" x1="369.399" y1="114.302" x2="92.8823" y2="530.598" gradientUnits="userSpaceOnUse">
<stop stop-color="#41873F"/>
<stop offset="0.3288" stop-color="#418B3D"/>
<stop offset="0.6352" stop-color="#419637"/>
<stop offset="0.9319" stop-color="#3FA92D"/>
<stop offset="1" stop-color="#3FAE2A"/>
</linearGradient>
<linearGradient id="paint1_linear_1575_728" x1="231.525" y1="352.615" x2="896.051" y2="6.69402" gradientUnits="userSpaceOnUse">
<stop offset="0.1376" stop-color="#41873F"/>
<stop offset="0.4032" stop-color="#54A044"/>
<stop offset="0.7136" stop-color="#66B848"/>
<stop offset="0.9081" stop-color="#6CC04A"/>
</linearGradient>
<linearGradient id="paint2_linear_1575_728" x1="-16.074" y1="320.145" x2="533.618" y2="320.145" gradientUnits="userSpaceOnUse">
<stop offset="0.09192" stop-color="#6CC04A"/>
<stop offset="0.2864" stop-color="#66B848"/>
<stop offset="0.5968" stop-color="#54A044"/>
<stop offset="0.8624" stop-color="#41873F"/>
</linearGradient>
<linearGradient id="paint3_linear_1575_728" x1="-269.685" y1="96.2455" x2="280.001" y2="96.2455" gradientUnits="userSpaceOnUse">
<stop offset="0.09192" stop-color="#6CC04A"/>
<stop offset="0.2864" stop-color="#66B848"/>
<stop offset="0.5968" stop-color="#54A044"/>
<stop offset="0.8624" stop-color="#41873F"/>
</linearGradient>
<linearGradient id="paint4_linear_1575_728" x1="360.083" y1="-360.87" x2="208.862" y2="398.34" gradientUnits="userSpaceOnUse">
<stop stop-color="#41873F"/>
<stop offset="0.3288" stop-color="#418B3D"/>
<stop offset="0.6352" stop-color="#419637"/>
<stop offset="0.9319" stop-color="#3FA92D"/>
<stop offset="1" stop-color="#3FAE2A"/>
</linearGradient>
<clipPath id="clip0_1575_728">
<rect width="25" height="16" fill="white"/>
</clipPath>
</defs>
</svg>
