<svg width="24" height="23" viewBox="0 0 24 23" fill="none" xmlns="http://www.w3.org/2000/svg">
<g clip-path="url(#clip0_1578_751)">
<path d="M16.6295 15.999C17.5151 15.9069 18.187 15.1393 18.1565 14.218C18.126 13.2969 17.3624 12.5599 16.4462 12.5599H16.3852C15.4383 12.5906 14.7053 13.3889 14.7359 14.3408C14.7665 14.8014 14.9497 15.2006 15.2245 15.477C14.1862 17.5344 12.598 19.039 10.2158 20.2979C8.59715 21.1577 6.91744 21.4648 5.23772 21.2499C3.86334 21.0656 2.79441 20.4516 2.12241 19.4381C1.14516 17.9335 1.05356 16.306 1.87819 14.6786C2.4585 13.5118 3.37462 12.652 3.95494 12.2221C3.83278 11.8229 3.6495 11.1474 3.55791 10.6561C-0.870564 13.8803 -0.412407 18.2406 0.931405 20.2979C1.93922 21.8333 3.9855 22.7852 6.24553 22.7852C6.85631 22.7852 7.46709 22.7238 8.07797 22.5703C11.9872 21.8026 14.9497 19.4689 16.6295 15.999ZM22.0047 12.1914C19.6836 9.45851 16.263 7.95392 12.3537 7.95392H11.8651C11.5902 7.40121 11.0099 7.03268 10.3686 7.03268H10.3074C9.36075 7.0634 8.62781 7.86174 8.65828 8.81372C8.68884 9.73487 9.45234 10.4718 10.3686 10.4718H10.4296C11.1015 10.4411 11.6818 10.0112 11.9261 9.42779H12.4759C14.797 9.42779 16.9959 10.1033 18.9812 11.4237C20.5082 12.4371 21.6077 13.7575 22.2185 15.3542C22.7377 16.6438 22.7071 17.9028 22.1573 18.9776C21.3022 20.605 19.8668 21.4955 17.9733 21.4955C16.7516 21.4955 15.5911 21.127 14.9802 20.8506C14.6443 21.1577 14.0334 21.649 13.6058 21.9561C14.9192 22.5702 16.263 22.908 17.5457 22.908C20.4776 22.908 22.6461 21.2805 23.4707 19.6531C24.3563 17.8721 24.2952 14.8014 22.0047 12.1914ZM6.48984 16.5209C6.5204 17.4422 7.28391 18.1791 8.20012 18.1791H8.26125C9.20803 18.1484 9.94097 17.35 9.9104 16.3981C9.87994 15.4769 9.11634 14.74 8.20012 14.74H8.13909C8.07797 14.74 7.98628 14.74 7.92534 14.7706C6.67312 12.6826 6.15394 10.4104 6.33722 7.95383C6.45928 6.11143 7.07015 4.51466 8.13909 3.19424C9.02475 2.05809 10.735 1.50538 11.8957 1.47475C15.1329 1.41329 16.5072 5.46654 16.5989 7.09404C16.9959 7.18612 17.6678 7.40112 18.126 7.55466C17.7594 2.58026 14.7053 0.00088501 11.7735 0.00088501C9.02475 0.00088501 6.48984 1.99683 5.48194 4.94465C4.07709 8.87508 4.99331 12.652 6.70359 15.6305C6.55097 15.8454 6.45928 16.1831 6.48984 16.5209Z" fill="#764ABC"/>
</g>
<defs>
<clipPath id="clip0_1578_751">
<rect width="24" height="23" fill="white"/>
</clipPath>
</defs>
</svg>
