<svg width="48" height="48" viewBox="0 0 48 48" fill="none" xmlns="http://www.w3.org/2000/svg">
<path d="M6 6V42H42V6H6ZM26.9 25H22.21V38.76H19.21V25H14.57V22.46H26.9V25ZM32.29 39C30.7606 39.0297 29.247 38.6865 27.88 38L28.54 35.54C29.75 36.1951 31.104 36.5388 32.48 36.54C34.38 36.54 35.48 35.65 35.48 34.32C35.48 32.99 34.66 32.32 32.59 31.61C29.9 30.66 28.18 29.22 28.18 26.88C28.18 24.21 30.41 22.2 33.95 22.2C35.2986 22.1617 36.6376 22.4391 37.86 23.01L37.15 25.41C36.1425 24.8898 35.0238 24.6221 33.89 24.63C32 24.63 31.2 25.63 31.2 26.63C31.2 27.88 32.14 28.47 34.31 29.3C37.15 30.38 38.51 31.8 38.51 34.14C38.47 36.74 36.49 39 32.29 39Z" fill="black"/>
</svg>
